<svg width="35" height="24" viewBox="0 0 35 24" fill="none" xmlns="http://www.w3.org/2000/svg">
<path d="M33.688 3.74741C33.2962 2.27468 32.1374 1.11286 30.663 0.714683C27.997 0.000137589 17.3007 0.000137329 17.3007 0.000137329C17.3007 0.000137329 6.60978 0.000137589 3.93842 0.714683C2.46944 1.10741 1.31058 2.26923 0.91341 3.74741C0.200684 6.42014 0.200684 12.0001 0.200684 12.0001C0.200684 12.0001 0.200684 17.5801 0.91341 20.2529C1.30514 21.7256 2.464 22.8874 3.93842 23.2856C6.60978 24.0001 17.3007 24.0001 17.3007 24.0001C17.3007 24.0001 27.997 24.0001 30.663 23.2856C32.1319 22.8929 33.2908 21.731 33.688 20.2529C34.4007 17.5801 34.4007 12.0001 34.4007 12.0001C34.4007 12.0001 34.4007 6.42014 33.688 3.74741Z" fill="#FF3000"/>
<path d="M13.8839 17.1438L22.7686 12.0001L13.8839 6.8565V17.1438Z" fill="white"/>
</svg>
